<svg preserveAspectRatio="none" width="100%" height="100%" overflow="visible" style="display: block;" viewBox="0 0 24 24.0015" fill="none" xmlns="http://www.w3.org/2000/svg">
<g id="INSTAGRAM LOGO">
<path id="Vector" d="M12 2.16213C15.204 2.16213 15.584 2.17413 16.849 2.23214C18.157 2.29214 19.504 2.59016 20.457 3.54322C21.419 4.50528 21.708 5.83936 21.768 7.15144C21.826 8.41652 21.838 8.79654 21.838 12.0007C21.838 15.2049 21.826 15.585 21.768 16.85C21.709 18.1511 21.404 19.5112 20.457 20.4583C19.495 21.4203 18.162 21.7093 16.849 21.7693C15.584 21.8273 15.204 21.8393 12 21.8393C8.796 21.8393 8.416 21.8273 7.151 21.7693C5.86 21.7103 4.482 21.3983 3.543 20.4583C2.586 19.5012 2.292 18.1541 2.232 16.85C2.174 15.585 2.162 15.2049 2.162 12.0007C2.162 8.79654 2.174 8.41652 2.232 7.15144C2.291 5.85536 2.599 4.48728 3.543 3.54322C4.503 2.58316 5.842 2.29214 7.151 2.23214C8.416 2.17413 8.796 2.16213 12 2.16213ZM12 0C8.741 0 8.332 0.0140009 7.052 0.0720044C5.197 0.15701 3.355 0.673041 2.014 2.01412C0.668 3.36021 0.157 5.19832 0.072 7.05243C0.014 8.33251 0 8.74154 0 12.0007C0 15.2599 0.014 15.669 0.072 16.949C0.157 18.8022 0.675 20.6493 2.014 21.9874C3.359 23.3324 5.2 23.8445 7.052 23.9295C8.332 23.9875 8.741 24.0015 12 24.0015C15.259 24.0015 15.668 23.9875 16.948 23.9295C18.802 23.8445 20.646 23.3274 21.986 21.9874C23.333 20.6403 23.843 18.8032 23.928 16.949C23.986 15.669 24 15.2599 24 12.0007C24 8.74154 23.986 8.33251 23.928 7.05243C23.843 5.19732 23.326 3.35421 21.986 2.01412C20.643 0.671041 18.797 0.15601 16.948 0.0720044C15.668 0.0140009 15.259 0 12 0Z" fill="var(--fill-0, black)"/>
<path id="Vector_2" d="M12 5.83836C8.597 5.83836 5.838 8.59736 5.838 12.0004C5.838 15.4034 8.597 18.1624 12 18.1624C15.403 18.1624 18.162 15.4034 18.162 12.0004C18.162 8.59736 15.403 5.83836 12 5.83836ZM12 16.0004C9.791 16.0004 8 14.2094 8 12.0004C8 9.79136 9.791 8.00036 12 8.00036C14.209 8.00036 16 9.79136 16 12.0004C16 14.2094 14.209 16.0004 12 16.0004Z" fill="var(--fill-0, black)"/>
<path id="Vector_3" d="M18.406 7.03426C19.2013 7.03426 19.846 6.38955 19.846 5.59426C19.846 4.79897 19.2013 4.15426 18.406 4.15426C17.6107 4.15426 16.966 4.79897 16.966 5.59426C16.966 6.38955 17.6107 7.03426 18.406 7.03426Z" fill="var(--fill-0, black)"/>
</g>
</svg>
